<mxfile host="65bd71144e">
    <diagram id="HnjqJoEakitvABJrekwR" name="Page-1">
        <mxGraphModel dx="1054" dy="617" grid="1" gridSize="10" guides="1" tooltips="1" connect="1" arrows="1" fold="1" page="1" pageScale="1" pageWidth="827" pageHeight="1169" background="none" math="0" shadow="0">
            <root>
                <mxCell id="0"/>
                <mxCell id="1" parent="0"/>
                <mxCell id="2" value="Bénévole" style="shape=umlActor;verticalLabelPosition=bottom;verticalAlign=top;html=1;" vertex="1" parent="1">
                    <mxGeometry x="10" y="810" width="30" height="60" as="geometry"/>
                </mxCell>
                <mxCell id="3" value="Inscription et authentification" style="text;align=center;fontStyle=1;verticalAlign=middle;spacingLeft=3;spacingRight=3;strokeColor=none;rotatable=0;points=[[0,0.5],[1,0.5]];portConstraint=eastwest;fontSize=14;" vertex="1" parent="1">
                    <mxGeometry x="360" y="20" width="70" height="26" as="geometry"/>
                </mxCell>
                <mxCell id="7" value="se connecter" style="ellipse;whiteSpace=wrap;html=1;fillColor=#008a00;fontColor=#ffffff;strokeColor=#005700;" vertex="1" parent="1">
                    <mxGeometry x="100" y="380" width="140" height="70" as="geometry"/>
                </mxCell>
                <mxCell id="8" value="créer un compte" style="ellipse;whiteSpace=wrap;html=1;fillColor=#008a00;fontColor=#ffffff;strokeColor=#005700;" vertex="1" parent="1">
                    <mxGeometry x="100" y="610" width="140" height="70" as="geometry"/>
                </mxCell>
                <mxCell id="13" value="Elève" style="shape=umlActor;verticalLabelPosition=bottom;verticalAlign=top;html=1;" vertex="1" parent="1">
                    <mxGeometry x="20" y="200" width="30" height="60" as="geometry"/>
                </mxCell>
                <mxCell id="18" value="" style="endArrow=open;endFill=1;endSize=12;html=1;entryX=0;entryY=0.5;entryDx=0;entryDy=0;startSize=5;" edge="1" parent="1" target="7">
                    <mxGeometry width="160" relative="1" as="geometry">
                        <mxPoint x="40" y="510" as="sourcePoint"/>
                        <mxPoint x="190" y="510" as="targetPoint"/>
                        <Array as="points">
                            <mxPoint x="60" y="510"/>
                            <mxPoint x="60" y="415"/>
                        </Array>
                    </mxGeometry>
                </mxCell>
                <mxCell id="19" value="" style="endArrow=open;endFill=1;endSize=12;html=1;entryX=0;entryY=0.5;entryDx=0;entryDy=0;" edge="1" parent="1" target="8">
                    <mxGeometry width="160" relative="1" as="geometry">
                        <mxPoint x="30" y="510" as="sourcePoint"/>
                        <mxPoint x="180" y="520" as="targetPoint"/>
                        <Array as="points">
                            <mxPoint x="60" y="510"/>
                            <mxPoint x="60" y="645"/>
                        </Array>
                    </mxGeometry>
                </mxCell>
                <mxCell id="20" value="" style="endArrow=open;endFill=1;endSize=12;html=1;" edge="1" parent="1">
                    <mxGeometry width="160" relative="1" as="geometry">
                        <mxPoint x="30.5" y="290" as="sourcePoint"/>
                        <mxPoint x="30" y="801.6666870117188" as="targetPoint"/>
                    </mxGeometry>
                </mxCell>
                <mxCell id="23" value="saisir email" style="ellipse;whiteSpace=wrap;html=1;fillColor=#008a00;fontColor=#ffffff;strokeColor=#005700;" vertex="1" parent="1">
                    <mxGeometry x="250" y="120" width="140" height="70" as="geometry"/>
                </mxCell>
                <mxCell id="24" value="saisir mot de passe" style="ellipse;whiteSpace=wrap;html=1;fillColor=#008a00;fontColor=#ffffff;strokeColor=#005700;" vertex="1" parent="1">
                    <mxGeometry x="250" y="280" width="140" height="70" as="geometry"/>
                </mxCell>
                <mxCell id="25" value="include" style="endArrow=open;endSize=12;dashed=1;html=1;fontSize=14;entryX=0;entryY=0.5;entryDx=0;entryDy=0;" edge="1" parent="1" target="23">
                    <mxGeometry x="0.6825" y="15" width="160" relative="1" as="geometry">
                        <mxPoint x="160" y="380" as="sourcePoint"/>
                        <mxPoint x="320" y="380" as="targetPoint"/>
                        <Array as="points">
                            <mxPoint x="160" y="155"/>
                        </Array>
                        <mxPoint as="offset"/>
                    </mxGeometry>
                </mxCell>
                <mxCell id="27" value="include" style="endArrow=open;endSize=12;dashed=1;html=1;fontSize=14;entryX=0.5;entryY=1;entryDx=0;entryDy=0;" edge="1" parent="1" target="24">
                    <mxGeometry x="-0.4495" y="15" width="160" relative="1" as="geometry">
                        <mxPoint x="240" y="414.5" as="sourcePoint"/>
                        <mxPoint x="400" y="414.5" as="targetPoint"/>
                        <Array as="points">
                            <mxPoint x="320" y="415"/>
                        </Array>
                        <mxPoint as="offset"/>
                    </mxGeometry>
                </mxCell>
                <mxCell id="28" value="saisir un email" style="ellipse;whiteSpace=wrap;html=1;fontSize=14;fillColor=#008a00;fontColor=#ffffff;strokeColor=#005700;" vertex="1" parent="1">
                    <mxGeometry x="250" y="500" width="140" height="70" as="geometry"/>
                </mxCell>
                <mxCell id="29" value="saisir un mot de passe" style="ellipse;whiteSpace=wrap;html=1;fontSize=14;fillColor=#008a00;fontColor=#ffffff;strokeColor=#005700;" vertex="1" parent="1">
                    <mxGeometry x="250" y="710" width="140" height="70" as="geometry"/>
                </mxCell>
                <mxCell id="30" value="confirmer le mot de passe" style="ellipse;whiteSpace=wrap;html=1;fontSize=14;fillColor=#008a00;fontColor=#ffffff;strokeColor=#005700;" vertex="1" parent="1">
                    <mxGeometry x="250" y="890" width="140" height="70" as="geometry"/>
                </mxCell>
                <mxCell id="31" value="include" style="endArrow=open;endSize=12;dashed=1;html=1;fontSize=14;entryX=0;entryY=0.5;entryDx=0;entryDy=0;" edge="1" parent="1" target="28">
                    <mxGeometry x="0.3939" y="15" width="160" relative="1" as="geometry">
                        <mxPoint x="160" y="610" as="sourcePoint"/>
                        <mxPoint x="320" y="610" as="targetPoint"/>
                        <Array as="points">
                            <mxPoint x="160" y="535"/>
                        </Array>
                        <mxPoint as="offset"/>
                    </mxGeometry>
                </mxCell>
                <mxCell id="32" value="include" style="endArrow=open;endSize=12;dashed=1;html=1;fontSize=14;entryX=0.5;entryY=0;entryDx=0;entryDy=0;exitX=1;exitY=0.5;exitDx=0;exitDy=0;" edge="1" parent="1" source="8" target="29">
                    <mxGeometry x="-0.4483" y="15" width="160" relative="1" as="geometry">
                        <mxPoint x="214" y="670" as="sourcePoint"/>
                        <mxPoint x="320" y="680" as="targetPoint"/>
                        <Array as="points">
                            <mxPoint x="320" y="645"/>
                        </Array>
                        <mxPoint as="offset"/>
                    </mxGeometry>
                </mxCell>
                <mxCell id="33" value="include" style="endArrow=open;endSize=12;dashed=1;html=1;fontSize=14;entryX=0;entryY=0.5;entryDx=0;entryDy=0;" edge="1" parent="1" target="30">
                    <mxGeometry x="-0.0769" y="30" width="160" relative="1" as="geometry">
                        <mxPoint x="170" y="680" as="sourcePoint"/>
                        <mxPoint x="330" y="680" as="targetPoint"/>
                        <Array as="points">
                            <mxPoint x="170" y="925"/>
                        </Array>
                        <mxPoint as="offset"/>
                    </mxGeometry>
                </mxCell>
                <mxCell id="34" value="vérification compte" style="ellipse;whiteSpace=wrap;html=1;fontSize=14;fillColor=#0050ef;fontColor=#ffffff;strokeColor=#001DBC;" vertex="1" parent="1">
                    <mxGeometry x="420" y="190" width="140" height="70" as="geometry"/>
                </mxCell>
                <mxCell id="35" value="include" style="endArrow=open;endSize=12;dashed=1;html=1;fontSize=14;entryX=0.5;entryY=0;entryDx=0;entryDy=0;" edge="1" parent="1" target="34">
                    <mxGeometry x="-0.2603" y="15" width="160" relative="1" as="geometry">
                        <mxPoint x="390" y="154.5" as="sourcePoint"/>
                        <mxPoint x="550" y="154.5" as="targetPoint"/>
                        <Array as="points">
                            <mxPoint x="490" y="155"/>
                        </Array>
                        <mxPoint as="offset"/>
                    </mxGeometry>
                </mxCell>
                <mxCell id="36" value="include" style="endArrow=open;endSize=12;dashed=1;html=1;fontSize=14;entryX=0.5;entryY=1;entryDx=0;entryDy=0;" edge="1" parent="1" target="34">
                    <mxGeometry x="-0.3558" y="15" width="160" relative="1" as="geometry">
                        <mxPoint x="390" y="314.5" as="sourcePoint"/>
                        <mxPoint x="550" y="314.5" as="targetPoint"/>
                        <Array as="points">
                            <mxPoint x="490" y="315"/>
                        </Array>
                        <mxPoint as="offset"/>
                    </mxGeometry>
                </mxCell>
                <mxCell id="37" value="l'utilisateur à oublié son mot de passe" style="ellipse;whiteSpace=wrap;html=1;fontSize=14;fillColor=#a20025;fontColor=#ffffff;strokeColor=#6F0000;" vertex="1" parent="1">
                    <mxGeometry x="827" y="50" width="140" height="70" as="geometry"/>
                </mxCell>
                <mxCell id="38" value="l'utilisateur n'existe pas" style="ellipse;whiteSpace=wrap;html=1;fontSize=14;fillColor=#a20025;fontColor=#ffffff;strokeColor=#6F0000;" vertex="1" parent="1">
                    <mxGeometry x="827" y="540" width="140" height="70" as="geometry"/>
                </mxCell>
                <mxCell id="39" value="authentification ok" style="ellipse;whiteSpace=wrap;html=1;fontSize=14;fillColor=#a20025;fontColor=#ffffff;strokeColor=#6F0000;" vertex="1" parent="1">
                    <mxGeometry x="840" y="190" width="140" height="70" as="geometry"/>
                </mxCell>
                <mxCell id="40" value="réinitialiser mot de passe" style="ellipse;whiteSpace=wrap;html=1;fontSize=14;fillColor=#008a00;fontColor=#ffffff;strokeColor=#005700;" vertex="1" parent="1">
                    <mxGeometry x="600" y="50" width="140" height="70" as="geometry"/>
                </mxCell>
                <mxCell id="42" value="extend" style="html=1;verticalAlign=bottom;endArrow=open;dashed=1;endSize=8;fontSize=14;entryX=0.731;entryY=0.029;entryDx=0;entryDy=0;entryPerimeter=0;" edge="1" parent="1" target="34">
                    <mxGeometry x="-0.4599" y="-5" relative="1" as="geometry">
                        <mxPoint x="600" y="84.5" as="sourcePoint"/>
                        <mxPoint x="520" y="84.5" as="targetPoint"/>
                        <Array as="points">
                            <mxPoint x="522" y="85"/>
                        </Array>
                        <mxPoint as="offset"/>
                    </mxGeometry>
                </mxCell>
                <mxCell id="43" value="connextion réussi&lt;br&gt;accés au tableau de bord" style="ellipse;whiteSpace=wrap;html=1;fontSize=14;fillColor=#0050ef;fontColor=#ffffff;strokeColor=#001DBC;" vertex="1" parent="1">
                    <mxGeometry x="610" y="190" width="140" height="70" as="geometry"/>
                </mxCell>
                <mxCell id="44" value="include" style="endArrow=open;endSize=12;dashed=1;html=1;fontSize=14;entryX=0;entryY=0.5;entryDx=0;entryDy=0;" edge="1" parent="1" target="43">
                    <mxGeometry x="-0.2059" y="15" width="160" relative="1" as="geometry">
                        <mxPoint x="560" y="224.5" as="sourcePoint"/>
                        <mxPoint x="660" y="224.5" as="targetPoint"/>
                        <mxPoint as="offset"/>
                    </mxGeometry>
                </mxCell>
                <mxCell id="45" value="include" style="endArrow=open;endSize=12;dashed=1;html=1;fontSize=14;" edge="1" parent="1">
                    <mxGeometry x="-0.1111" y="15" width="160" relative="1" as="geometry">
                        <mxPoint x="750" y="224.5" as="sourcePoint"/>
                        <mxPoint x="840" y="224.5" as="targetPoint"/>
                        <mxPoint y="1" as="offset"/>
                    </mxGeometry>
                </mxCell>
                <mxCell id="46" value="include" style="endArrow=open;endSize=12;dashed=1;html=1;fontSize=14;exitX=1;exitY=0.5;exitDx=0;exitDy=0;entryX=0.802;entryY=0.91;entryDx=0;entryDy=0;entryPerimeter=0;" edge="1" parent="1" source="29" target="34">
                    <mxGeometry x="0.1554" y="61" width="160" relative="1" as="geometry">
                        <mxPoint x="440" y="730" as="sourcePoint"/>
                        <mxPoint x="600" y="730" as="targetPoint"/>
                        <Array as="points">
                            <mxPoint x="530" y="745"/>
                        </Array>
                        <mxPoint as="offset"/>
                    </mxGeometry>
                </mxCell>
                <mxCell id="47" value="" style="endArrow=none;dashed=1;html=1;fontSize=14;startSize=5;exitX=1;exitY=0.5;exitDx=0;exitDy=0;" edge="1" parent="1" source="30">
                    <mxGeometry width="50" height="50" relative="1" as="geometry">
                        <mxPoint x="490" y="750" as="sourcePoint"/>
                        <mxPoint x="530" y="740" as="targetPoint"/>
                        <Array as="points">
                            <mxPoint x="530" y="925"/>
                        </Array>
                    </mxGeometry>
                </mxCell>
                <mxCell id="48" value="" style="endArrow=none;dashed=1;html=1;fontSize=14;startSize=5;exitX=1;exitY=0.5;exitDx=0;exitDy=0;" edge="1" parent="1" source="28">
                    <mxGeometry width="50" height="50" relative="1" as="geometry">
                        <mxPoint x="490" y="590" as="sourcePoint"/>
                        <mxPoint x="530" y="535" as="targetPoint"/>
                    </mxGeometry>
                </mxCell>
                <mxCell id="50" value="" style="endArrow=none;dashed=1;html=1;fontSize=14;startSize=5;exitX=1.011;exitY=0.41;exitDx=0;exitDy=0;exitPerimeter=0;" edge="1" parent="1" source="40">
                    <mxGeometry width="50" height="50" relative="1" as="geometry">
                        <mxPoint x="750" y="80" as="sourcePoint"/>
                        <mxPoint x="827" y="80" as="targetPoint"/>
                    </mxGeometry>
                </mxCell>
                <mxCell id="51" value="extend" style="html=1;verticalAlign=bottom;endArrow=open;dashed=1;endSize=8;fontSize=14;entryX=0;entryY=1;entryDx=0;entryDy=0;exitX=0.5;exitY=1;exitDx=0;exitDy=0;" edge="1" parent="1" source="38" target="8">
                    <mxGeometry relative="1" as="geometry">
                        <mxPoint x="827" y="570" as="sourcePoint"/>
                        <mxPoint x="100" y="696.6666259765625" as="targetPoint"/>
                        <Array as="points">
                            <mxPoint x="900" y="990"/>
                            <mxPoint x="121" y="990"/>
                        </Array>
                    </mxGeometry>
                </mxCell>
                <mxCell id="53" value="include" style="endArrow=open;endSize=12;dashed=1;html=1;fontSize=14;" edge="1" parent="1" target="38">
                    <mxGeometry x="0.5196" y="15" width="160" relative="1" as="geometry">
                        <mxPoint x="550" y="240" as="sourcePoint"/>
                        <mxPoint x="710" y="240" as="targetPoint"/>
                        <Array as="points">
                            <mxPoint x="550" y="575"/>
                        </Array>
                        <mxPoint as="offset"/>
                    </mxGeometry>
                </mxCell>
            </root>
        </mxGraphModel>
    </diagram>
</mxfile>